<?xml version="1.0" encoding="UTF-8" standalone="no"?>
<svg xmlns:dc="http://purl.org/dc/elements/1.1/" xmlns:cc="http://creativecommons.org/ns#"
  xmlns:rdf="http://www.w3.org/1999/02/22-rdf-syntax-ns#" xmlns:svg="http://www.w3.org/2000/svg"
  xmlns="http://www.w3.org/2000/svg" id="svg13" xml:space="preserve" viewBox="0 0 1024 768" y="0px" x="0px"
  version="1.1">
  <metadata id="metadata19">
    <rdf:RDF>
      <cc:Work rdf:about="">
        <dc:format>image/svg+xml</dc:format>
        <dc:type rdf:resource="http://purl.org/dc/dcmitype/StillImage" />
      </cc:Work>
    </rdf:RDF>
  </metadata>
  <defs id="defs17" />
  <style id="style2">
    #logo-fade {
      opacity: 0;
      animation: fadeIn 4s ease-in forwards;
    }

    @keyframes fadeIn {
      0% {
        opacity: 0;
      }

      50% {
        opacity: 0;
      }

      100% {
        opacity: 1;
      }
    }

    @keyframes fadeOut {
      from {
        opacity: 1;
      }

      to {
        opacity: 0;
      }
    }

    #outline {
      opacity: 1;
      stroke-dasharray: 2000;
      stroke-dashoffset: 2000;
      animation: dash 4s ease-in-out forwards;
    }

    @keyframes dash {
      0% {
        opacity: 1;
        stroke-dashoffset: 2000;
      }

      50% {
        opacity: 1;
        stroke-dashoffset: 1000;
      }

      100% {
        opacity: 0;
        stroke-dashoffset: 0;
      }
    }
  </style>
  <path stroke-width="4" stroke="#000000" fill="none"
    d="m427.31641 322.10547v122.12305h22.8789v-21.51563l9.0918-9.84961 20 31.36524h49.33008v-46.97071c1.06062-7.42431 7.42387-13.18164 15.30273-13.18164 8.48493 0 15.45508 6.97015 15.45508 15.45508v44.69727h22.72656v-44.69727c0-10.30313-4.08965-19.85026-11.21094-27.12305-7.27278-7.12128-16.81909-11.06054-26.9707-11.06054-5.45459 0-10.60572 1.06041-15.30273 3.18164v-5.60547h-22.72852v0.91015h-27.05664l-28.63672 32.1211v-69.84961zm190.11523 10.60547-22.72656 7.57617v58.78906c0 6.36369 1.21049 12.42401 3.63476 18.18164 2.27275 5.60611 5.7595 10.60715 10.00196 14.84961 4.24246 4.39398 9.24154 7.72613 14.84765 10.15039 5.75763 2.42426 11.9703 3.63672 18.33399 3.63672v-22.72656c-13.33345 0-24.0918-10.75835-24.0918-24.0918v-18.03125h24.0918v-21.21094h-24.0918zm-231.25195 25.15234c-15.30317 0-27.72656 12.57574-27.72657 27.87891 0 15.30317 12.4234 27.72851 27.72657 27.72851h6.36328c2.12123 0 3.93945 1.81823 3.93945 3.93946 0 2.27275-1.81822 3.93945-3.93945 3.93945h-35.45508v23.78711h35.45508c15.30317 0 27.72851-12.42339 27.72851-27.72656s-12.42534-27.72852-27.72851-27.72852h-6.36328c-2.27275 0-3.93946-1.81822-3.93946-3.93945 0-2.27275 1.66671-4.08985 3.93946-4.08985h31.66797v-23.78906zm119.70898 4.2207v33.96094c-0.15152 1.21213-0.15039 2.27419-0.15039 3.48633h0.15039v44.36133l-30.84375-47.69531zm152.08399 60.02149c-5.00004 0-9.0918 3.9394-9.0918 8.93945 0 5.00004 4.09176 8.94141 9.0918 8.94141 5.00005 0 8.93945-3.94137 8.93945-8.94141 0-5.00005-3.9394-8.93945-8.93945-8.93945z"
    id="outline" />
  <g style="opacity:0" id="logo-fade">
    <g id="logo-group">
      <g style="font-variant-ligatures:none;fill:#000" aria-label="sknt." id="title">
        <path transform="matrix(2.1043963,0,0,2.1043963,-562.09267,186.39719)" style="font-variant-ligatures:none"
          d="m 453.63894,122.952 c 7.272,0 13.176,-5.904 13.176,-13.176 0,-7.272 -5.904,-13.176 -13.176,-13.176 h -3.024 c -1.08,0 -1.872,-0.864 -1.872,-1.872 0,-1.08 0.792,-1.944 1.872,-1.944 h 15.048 V 81.48 h -15.048 c -7.272,0 -13.176,5.976 -13.176,13.248 0,7.272 5.904,13.176 13.176,13.176 h 3.024 c 1.008,0 1.872,0.864 1.872,1.872 0,1.08 -0.864,1.872 -1.872,1.872 h -16.848 v 11.304 z"
          id="path699977" />
        <path transform="matrix(2.1043963,0,0,2.1043963,-562.09267,186.39719)" style="font-variant-ligatures:none"
          d="m 494.85894,122.52 h 12.744 l -14.76,-22.824 15.624,-17.28 h -13.824 l -13.608,15.264 V 64.488 h -10.872 v 58.032 h 10.872 v -10.224 l 4.32,-4.68 z"
          id="path699979" />
        <path transform="matrix(2.1043963,0,0,2.1043963,-562.09267,186.39719)" style="font-variant-ligatures:none"
          d="m 538.38856,88.392 c -3.456,-3.384 -7.992,-5.256 -12.816,-5.256 -2.592,0 -5.04,0.504 -7.272,1.512 v -2.664 h -10.8 v 17.64 c -0.072,0.576 -0.072,1.08 -0.072,1.656 h 0.072 v 21.24 h 10.8 V 100.2 c 0.504,-3.528 3.528,-6.264 7.272,-6.264 4.032,0 7.344,3.312 7.344,7.344 v 21.24 h 10.8 v -21.24 c 0,-4.896 -1.944,-9.432 -5.328,-12.888 z"
          id="path699981" />
        <path transform="matrix(2.1043963,0,0,2.1043963,-562.09267,186.39719)" style="font-variant-ligatures:none"
          d="m 571.95294,92.496 v -10.08 h -11.448 V 69.528 l -10.8,3.6 v 27.936 c 0,3.024 0.576,5.904 1.728,8.64 1.08,2.664 2.736,5.04 4.752,7.056 2.016,2.088 4.392,3.672 7.056,4.824 2.736,1.152 5.688,1.728 8.712,1.728 v -10.8 c -6.336,0 -11.448,-5.112 -11.448,-11.448 v -8.568 z"
          id="path699983" />
        <path transform="matrix(2.1043963,0,0,2.1043963,-562.09267,186.39719)" style="font-variant-ligatures:none"
          d="m 579.76944,120.504 c 2.376,0 4.248,-1.872 4.248,-4.248 0,-2.376 -1.872,-4.248 -4.248,-4.248 -2.376,0 -4.32,1.872 -4.32,4.248 0,2.376 1.944,4.248 4.32,4.248 z"
          id="path699985" />
      </g>
    </g>
  </g>
</svg>